<svg width="440" height="440" viewBox="0 0 440 440" fill="none" xmlns="http://www.w3.org/2000/svg">
<path d="M220 438C340.398 438 438 340.398 438 220C438 168.462 420.115 121.1 390.214 83.7841C379.716 90.0154 367.705 94.3529 356.263 97.6577C333.118 104.343 303.768 109.016 275.839 113.464C270.038 114.388 264.298 115.302 258.687 116.222C224.096 121.896 193.498 127.906 171.784 137.096C149.305 146.609 148.024 154.109 148.024 157.69C148.024 160.628 148.102 165.119 162.479 171.842C177.862 179.036 199.701 183.705 226.745 189.238C227.503 189.393 228.265 189.549 229.033 189.706C253.283 194.661 282.097 200.549 304.801 211.09C329.18 222.409 355.15 243.488 355.15 281.275C355.15 323.646 321.544 346.06 293.332 357.84C263.927 370.118 226.296 377.145 192.576 382.867C186.81 383.846 181.154 384.788 175.626 385.708L175.61 385.711C146.984 390.477 121.776 394.674 102.275 400.491C101.187 400.816 100.142 401.139 99.1409 401.459C133.731 424.543 175.294 438 220 438Z" fill="#1761FF"/>
<path d="M49.4779 355.83C60.199 349.141 72.6414 344.487 84.5133 340.946C108.118 333.905 138.094 328.935 166.53 324.22C171.817 323.344 177.05 322.476 182.179 321.606C216.811 315.728 247.532 309.626 269.39 300.5C292.442 290.875 293.012 283.608 293.012 281.275V281.231C293.012 278.538 293.013 274.126 278.633 267.449C263.22 260.293 241.364 255.653 214.291 250.115L212.361 249.72C188.009 244.743 159.004 238.814 136.157 228.13C111.698 216.692 85.886 195.486 85.886 157.69C85.886 115.012 118.781 92.0543 147.565 79.872C177.115 67.3659 214.868 60.4416 248.629 54.9037C255.095 53.843 261.418 52.8318 267.576 51.8469C295.443 47.3903 319.928 43.4745 339.02 37.9601C339.245 37.8952 339.468 37.8304 339.688 37.7657C305.333 15.1559 264.203 2 220 2C99.6019 2 2.00002 99.6019 2.00002 220C2.00001 271.361 19.7617 318.573 49.4779 355.83Z" fill="#1761FF"/>
</svg>
